<svg width="54" height="60" viewBox="0 0 54 60" fill="none" xmlns="http://www.w3.org/2000/svg">
<path d="M3.8 16.6667L27 30.0001M27 30.0001L50.2 16.6667M27 30.0001V56.6667M51 19.3334C50.999 18.3981 50.7522 17.4796 50.2841 16.6698C49.8161 15.8601 49.1433 15.1877 48.3333 14.7201L29.6667 4.0534C28.8559 3.5853 27.9362 3.33887 27 3.33887C26.0638 3.33887 25.1441 3.5853 24.3333 4.0534L5.66667 14.7201C4.8567 15.1877 4.18395 15.8601 3.7159 16.6698C3.24785 17.4796 3.00096 18.3981 3 19.3334V40.6667C3.00096 41.602 3.24785 42.5206 3.7159 43.3303C4.18395 44.14 4.8567 44.8124 5.66667 45.2801L24.3333 55.9467C25.1441 56.4148 26.0638 56.6613 27 56.6613C27.9362 56.6613 28.8559 56.4148 29.6667 55.9467L48.3333 45.2801C49.1433 44.8124 49.8161 44.14 50.2841 43.3303C50.7522 42.5206 50.999 41.602 51 40.6667V19.3334Z" stroke="#1B2331" stroke-width="5.33333" stroke-linecap="round" stroke-linejoin="round"/>
</svg>
